<!-- Generator: Adobe Illustrator 23.0.3, SVG Export Plug-In  -->
<svg version="1.1" xmlns="http://www.w3.org/2000/svg" xmlns:xlink="http://www.w3.org/1999/xlink" x="0px" y="0px" width="43.8px"
	 height="54.8px" viewBox="0 0 43.8 54.8" style="enable-background:new 0 0 43.8 54.8;" xml:space="preserve">
<defs>
</defs>
<path style="fill-rule:evenodd;clip-rule:evenodd;fill:#EAEAEA;" d="M35.2,35.8c-0.7,0.2-1.6,0.2-2.7,0.1c-1.1-0.2-2.3-0.5-3.4-1
	c2-0.3,3.6-0.2,4.9,0.3C34.3,35.2,34.8,35.5,35.2,35.8z M23.9,33.9c-0.1,0-0.2,0-0.2,0.1c-0.5,0.1-1.1,0.3-1.6,0.4l-0.7,0.2
	c-1.4,0.3-2.8,0.7-4.2,1.1c0.5-1.3,1-2.6,1.5-3.8c0.4-0.9,0.7-1.9,1.1-2.8c0.2,0.3,0.4,0.6,0.6,0.9C21.4,31.4,22.6,32.8,23.9,33.9z
	 M20.4,19.5c0.1,1.6-0.2,3.1-0.8,4.5c-0.6-1.8-0.9-3.8-0.1-5.4c0.2-0.4,0.4-0.6,0.5-0.7C20.2,18.2,20.4,18.7,20.4,19.5z M13.2,39.5
	c-0.3,0.6-0.7,1.2-1.1,1.7c-0.9,1.3-2.3,2.7-3,2.7c-0.1,0-0.2,0-0.3-0.1c-0.1-0.1-0.1-0.1-0.1-0.2c0-0.5,0.7-1.3,1.6-2.1
	C11.2,40.7,12.1,40.1,13.2,39.5z M37.5,35.8c-0.1-1.6-2.8-2.6-2.8-2.7c-1-0.4-2.2-0.6-3.5-0.6c-1.4,0-2.9,0.2-4.8,0.7
	c-1.7-1.2-3.2-2.7-4.3-4.4c-0.5-0.7-0.9-1.5-1.3-2.2c0.9-2.2,1.8-4.6,1.6-7.3c-0.1-2.1-1.1-3.6-2.4-3.6c-0.9,0-1.7,0.7-2.3,2
	c-1.1,2.4-0.8,5.4,0.9,9c-0.6,1.4-1.2,2.9-1.7,4.4c-0.7,1.8-1.4,3.7-2.2,5.4c-2.2,0.9-4.1,2-5.6,3.3c-1,0.9-2.2,2.2-2.3,3.6
	c0,0.7,0.2,1.2,0.6,1.7C7.8,45.7,8.4,46,9.1,46c2.2,0,4.3-3,4.7-3.6c0.8-1.2,1.6-2.6,2.3-4.1c1.9-0.7,3.9-1.2,5.8-1.7l0.7-0.2
	c0.5-0.1,1.1-0.3,1.6-0.4c0.6-0.2,1.2-0.3,1.8-0.5c2,1.3,4.1,2.1,6.2,2.4c1.7,0.3,3.3,0.1,4.4-0.4C37.5,36.9,37.5,36.1,37.5,35.8
	L37.5,35.8z M41.8,49.7c0,2.9-2.6,3.1-3.1,3.1H5.1c-2.9,0-3.1-2.6-3.1-3.1V5.1C2,2.2,4.6,2,5.1,2h22.6l0,0v8.8
	c0,1.8,1.1,5.1,5.1,5.1h8.8l0.1,0.1L41.8,49.7z M39.7,14h-6.8c-2.9,0-3.1-2.6-3.1-3.1l0-6.8L39.7,14z M43.8,49.7V15.2l-14-14V1.1
	h-0.1L28.6,0H5.1C3.4,0,0,1.1,0,5.1v44.5c0,1.8,1.1,5.1,5.1,5.1h33.5C40.4,54.8,43.8,53.8,43.8,49.7L43.8,49.7z"/>
</svg>
